<?xml version="1.0" encoding="utf-8"?>
<!-- Generator: Adobe Illustrator 19.0.0, SVG Export Plug-In . SVG Version: 6.00 Build 0)  -->
<svg version="1.1" id="Layer_1" xmlns="http://www.w3.org/2000/svg" xmlns:xlink="http://www.w3.org/1999/xlink" x="0px" y="0px"
	 viewBox="-400.3 260.6 42.6 14.8" style="enable-background:new -400.3 260.6 42.6 14.8;" xml:space="preserve">
<style type="text/css">
	.st0{fill:#FFFFFF;}
</style>
<path class="st0" d="M-357.9,261.1c-0.3-0.5-0.9-0.6-1.4-0.3l-19.7,12.5l-19.7-12.5c-0.5-0.3-1.1-0.2-1.4,0.3
	c-0.3,0.5-0.2,1.1,0.3,1.4l20.2,12.8c0.2,0.1,0.4,0.2,0.5,0.2c0,0,0,0,0.1,0c0,0,0,0,0.1,0c0.2,0,0.4,0,0.5-0.2l20.2-12.8
	C-357.7,262.2-357.6,261.5-357.9,261.1z"/>
</svg>
